<mxfile host="app.diagrams.net" agent="Mozilla/5.0 (Windows NT 10.0; Win64; x64) AppleWebKit/537.36 (KHTML, like Gecko) Chrome/131.0.0.0 Safari/537.36" version="24.7.16">
  <diagram name="Page-1" id="OHq4q7W8kAcJ0XfRLgiS">
    <mxGraphModel dx="3102" dy="1944" grid="1" gridSize="10" guides="1" tooltips="1" connect="1" arrows="1" fold="1" page="1" pageScale="1" pageWidth="827" pageHeight="1169" math="0" shadow="0">
      <root>
        <mxCell id="0" />
        <mxCell id="1" parent="0" />
        <mxCell id="fOLCw8tbv4_lNWumuzNF-13" value="C" style="ellipse;whiteSpace=wrap;html=1;aspect=fixed;movable=1;resizable=1;rotatable=1;deletable=1;editable=1;locked=0;connectable=1;" vertex="1" parent="1">
          <mxGeometry x="-1340" y="-60" width="80" height="80" as="geometry" />
        </mxCell>
        <mxCell id="fOLCw8tbv4_lNWumuzNF-14" value="T" style="ellipse;whiteSpace=wrap;html=1;aspect=fixed;movable=1;resizable=1;rotatable=1;deletable=1;editable=1;locked=0;connectable=1;" vertex="1" parent="1">
          <mxGeometry x="-1510" y="70" width="80" height="80" as="geometry" />
        </mxCell>
        <mxCell id="fOLCw8tbv4_lNWumuzNF-17" value="A" style="ellipse;whiteSpace=wrap;html=1;aspect=fixed;" vertex="1" parent="1">
          <mxGeometry x="-1180" y="60" width="80" height="80" as="geometry" />
        </mxCell>
        <mxCell id="fOLCw8tbv4_lNWumuzNF-18" value="Z" style="ellipse;whiteSpace=wrap;html=1;aspect=fixed;" vertex="1" parent="1">
          <mxGeometry x="-1280" y="190" width="80" height="80" as="geometry" />
        </mxCell>
        <mxCell id="fOLCw8tbv4_lNWumuzNF-19" value="O" style="ellipse;whiteSpace=wrap;html=1;aspect=fixed;" vertex="1" parent="1">
          <mxGeometry x="-1070" y="190" width="80" height="80" as="geometry" />
        </mxCell>
        <mxCell id="fOLCw8tbv4_lNWumuzNF-20" value="" style="endArrow=none;html=1;rounded=0;entryX=0;entryY=1;entryDx=0;entryDy=0;exitX=0.5;exitY=0;exitDx=0;exitDy=0;" edge="1" parent="1" source="fOLCw8tbv4_lNWumuzNF-18" target="fOLCw8tbv4_lNWumuzNF-17">
          <mxGeometry width="50" height="50" relative="1" as="geometry">
            <mxPoint x="-1280" y="190" as="sourcePoint" />
            <mxPoint x="-1230" y="140" as="targetPoint" />
          </mxGeometry>
        </mxCell>
        <mxCell id="fOLCw8tbv4_lNWumuzNF-21" value="" style="endArrow=none;html=1;rounded=0;entryX=1;entryY=1;entryDx=0;entryDy=0;exitX=0.5;exitY=0;exitDx=0;exitDy=0;" edge="1" parent="1" source="fOLCw8tbv4_lNWumuzNF-19" target="fOLCw8tbv4_lNWumuzNF-17">
          <mxGeometry width="50" height="50" relative="1" as="geometry">
            <mxPoint x="-990" y="190" as="sourcePoint" />
            <mxPoint x="-940" y="140" as="targetPoint" />
          </mxGeometry>
        </mxCell>
        <mxCell id="fOLCw8tbv4_lNWumuzNF-22" value="" style="endArrow=none;html=1;rounded=0;entryX=1;entryY=1;entryDx=0;entryDy=0;exitX=0.5;exitY=0;exitDx=0;exitDy=0;" edge="1" parent="1" source="fOLCw8tbv4_lNWumuzNF-17" target="fOLCw8tbv4_lNWumuzNF-13">
          <mxGeometry width="50" height="50" relative="1" as="geometry">
            <mxPoint x="-1100" y="60" as="sourcePoint" />
            <mxPoint x="-1050" y="10" as="targetPoint" />
          </mxGeometry>
        </mxCell>
        <mxCell id="fOLCw8tbv4_lNWumuzNF-23" value="U" style="ellipse;whiteSpace=wrap;html=1;aspect=fixed;" vertex="1" parent="1">
          <mxGeometry x="-1620" y="190" width="80" height="80" as="geometry" />
        </mxCell>
        <mxCell id="fOLCw8tbv4_lNWumuzNF-24" value="S" style="ellipse;whiteSpace=wrap;html=1;aspect=fixed;" vertex="1" parent="1">
          <mxGeometry x="-1420" y="190" width="80" height="80" as="geometry" />
        </mxCell>
        <mxCell id="fOLCw8tbv4_lNWumuzNF-25" value="W" style="ellipse;whiteSpace=wrap;html=1;aspect=fixed;" vertex="1" parent="1">
          <mxGeometry x="-1720" y="310" width="80" height="80" as="geometry" />
        </mxCell>
        <mxCell id="fOLCw8tbv4_lNWumuzNF-26" value="X" style="ellipse;whiteSpace=wrap;html=1;aspect=fixed;" vertex="1" parent="1">
          <mxGeometry x="-1540" y="310" width="80" height="80" as="geometry" />
        </mxCell>
        <mxCell id="fOLCw8tbv4_lNWumuzNF-27" value="" style="endArrow=none;html=1;rounded=0;entryX=0;entryY=1;entryDx=0;entryDy=0;exitX=0.5;exitY=0;exitDx=0;exitDy=0;" edge="1" parent="1" source="fOLCw8tbv4_lNWumuzNF-23" target="fOLCw8tbv4_lNWumuzNF-14">
          <mxGeometry width="50" height="50" relative="1" as="geometry">
            <mxPoint x="-1590" y="170" as="sourcePoint" />
            <mxPoint x="-1540" y="120" as="targetPoint" />
          </mxGeometry>
        </mxCell>
        <mxCell id="fOLCw8tbv4_lNWumuzNF-28" value="" style="endArrow=none;html=1;rounded=0;entryX=1;entryY=1;entryDx=0;entryDy=0;exitX=0.5;exitY=0;exitDx=0;exitDy=0;" edge="1" parent="1" source="fOLCw8tbv4_lNWumuzNF-24" target="fOLCw8tbv4_lNWumuzNF-14">
          <mxGeometry width="50" height="50" relative="1" as="geometry">
            <mxPoint x="-1340" y="180" as="sourcePoint" />
            <mxPoint x="-1290" y="130" as="targetPoint" />
          </mxGeometry>
        </mxCell>
        <mxCell id="fOLCw8tbv4_lNWumuzNF-29" value="" style="endArrow=none;html=1;rounded=0;entryX=0;entryY=1;entryDx=0;entryDy=0;exitX=0.5;exitY=0;exitDx=0;exitDy=0;" edge="1" parent="1" source="fOLCw8tbv4_lNWumuzNF-25" target="fOLCw8tbv4_lNWumuzNF-23">
          <mxGeometry width="50" height="50" relative="1" as="geometry">
            <mxPoint x="-1740" y="290" as="sourcePoint" />
            <mxPoint x="-1690" y="240" as="targetPoint" />
          </mxGeometry>
        </mxCell>
        <mxCell id="fOLCw8tbv4_lNWumuzNF-30" value="" style="endArrow=none;html=1;rounded=0;entryX=1;entryY=1;entryDx=0;entryDy=0;exitX=0.5;exitY=0;exitDx=0;exitDy=0;" edge="1" parent="1" source="fOLCw8tbv4_lNWumuzNF-26" target="fOLCw8tbv4_lNWumuzNF-23">
          <mxGeometry width="50" height="50" relative="1" as="geometry">
            <mxPoint x="-1440" y="350" as="sourcePoint" />
            <mxPoint x="-1390" y="300" as="targetPoint" />
          </mxGeometry>
        </mxCell>
        <mxCell id="fOLCw8tbv4_lNWumuzNF-31" value="" style="endArrow=none;html=1;rounded=0;entryX=0;entryY=1;entryDx=0;entryDy=0;exitX=0.5;exitY=0;exitDx=0;exitDy=0;" edge="1" parent="1" source="fOLCw8tbv4_lNWumuzNF-14" target="fOLCw8tbv4_lNWumuzNF-13">
          <mxGeometry width="50" height="50" relative="1" as="geometry">
            <mxPoint x="-1490" y="70" as="sourcePoint" />
            <mxPoint x="-1440" y="20" as="targetPoint" />
          </mxGeometry>
        </mxCell>
      </root>
    </mxGraphModel>
  </diagram>
</mxfile>
